<?xml version="1.0" encoding="UTF-8" standalone="no"?>
<svg
   xmlns:dc="http://purl.org/dc/elements/1.1/"
   xmlns:cc="http://creativecommons.org/ns#"
   xmlns:rdf="http://www.w3.org/1999/02/22-rdf-syntax-ns#"
   xmlns:svg="http://www.w3.org/2000/svg"
   xmlns="http://www.w3.org/2000/svg"
   xmlns:sodipodi="http://sodipodi.sourceforge.net/DTD/sodipodi-0.dtd"
   xmlns:inkscape="http://www.inkscape.org/namespaces/inkscape"
   version="1.1"
   id="svg2"
   xml:space="preserve"
   width="545.08002"
   height="87.32"
   viewBox="0 0 545.08002 87.32"
   sodipodi:docname="rgb_thoughtworks_flamingo_wave.eps"><metadata
     id="metadata8"><rdf:RDF><cc:Work
         rdf:about=""><dc:format>image/svg+xml</dc:format><dc:type
           rdf:resource="http://purl.org/dc/dcmitype/StillImage" /></cc:Work></rdf:RDF></metadata><defs
     id="defs6" /><sodipodi:namedview
     pagecolor="#ffffff"
     bordercolor="#666666"
     borderopacity="1"
     objecttolerance="10"
     gridtolerance="10"
     guidetolerance="10"
     inkscape:pageopacity="0"
     inkscape:pageshadow="2"
     inkscape:window-width="640"
     inkscape:window-height="480"
     id="namedview4" /><g
     id="g10"
     inkscape:groupmode="layer"
     inkscape:label="ink_ext_XXXXXX"
     transform="matrix(1.3333333,0,0,-1.3333333,0,87.32)"><g
       id="g12"
       transform="scale(0.1)"><path
         d="M 272.133,654.871 0,120.781 h 126.43 l 272.129,534.09 H 272.133"
         style="fill:#f14176;fill-opacity:1;fill-rule:nonzero;stroke:none"
         id="path14" /><path
         d="m 1811.68,251.797 c -3.1,-10.535 -7.74,-19.93 -13.94,-28.192 -6.2,-8.261 -14.04,-14.855 -23.54,-19.824 -9.51,-4.953 -20.44,-7.422 -32.82,-7.422 -13.63,0 -25,2.879 -34.07,8.672 -9.1,5.77 -16.41,13.211 -21.98,22.293 -5.6,9.082 -9.53,19.309 -11.77,30.66 -2.29,11.36 -3.43,22.813 -3.43,34.379 0,11.973 1.34,23.43 4.03,34.375 2.7,10.946 7.03,20.645 13.01,29.114 6,8.457 13.41,15.175 22.3,20.136 8.88,4.957 19.51,7.426 31.91,7.426 14.44,0 26.41,-2.684 35.92,-8.055 9.5,-5.367 17.14,-12.589 22.91,-21.675 5.79,-9.082 9.93,-19.508 12.4,-31.278 2.47,-11.769 3.7,-24.261 3.7,-37.476 0,-11.555 -1.54,-22.61 -4.63,-33.133 z m 26.37,189.23 -21.74,-42.668 h -1.28 c -10.73,18.547 -24.02,31.731 -39.9,39.567 -15.9,7.844 -34.38,11.773 -55.43,11.773 -22.3,0 -42.03,-4.336 -59.15,-13.004 -17.16,-8.687 -31.5,-20.355 -43.07,-35.007 -11.55,-14.661 -20.34,-31.583 -26.32,-50.79 -5.99,-19.203 -8.97,-39.128 -8.97,-59.769 0,-21.891 2.57,-42.645 7.74,-62.25 5.17,-19.629 13.31,-36.77 24.48,-51.418 11.13,-14.656 25.37,-26.231 42.72,-34.688 17.33,-8.464 38,-12.695 61.94,-12.695 19.41,0 37.89,4.035 55.43,12.082 17.57,8.055 31.07,20.528 40.58,37.469 h 1.23 v -42.117 c 0,-49.6604 -23.46,-78.6526 -69.83,-78.6526 -45.6,0 -71.4,20.2422 -84.57,36.4453 l -32.06,-62.9219 c 0,0 35.95,-32.3828 104.1,-32.3828 113.05,0 165.99,54.5508 165.99,141.23 v 299.797 h -61.89"
         style="fill:#19394c;fill-opacity:1;fill-rule:nonzero;stroke:none"
         id="path16" /><path
         d="M 665.441,563.059 V 396.438 h 1.868 c 11.14,18.574 25.379,32.085 42.746,40.55 17.34,8.465 34.25,12.707 50.781,12.707 23.547,0 42.824,-3.207 57.922,-9.605 15.07,-6.402 26.941,-15.274 35.613,-26.641 8.668,-11.344 14.742,-25.179 18.274,-41.484 3.5,-16.332 5.265,-34.379 5.265,-54.215 V 120.781 h -87.961 v 180.867 c 0,26.434 -4.133,46.145 -12.398,59.149 -8.266,13.031 -22.91,19.535 -43.953,19.535 -23.973,0 -41.313,-7.133 -52.047,-21.375 -10.738,-14.262 -16.11,-37.707 -16.11,-70.316 V 120.781 H 577.48 v 442.278 h 87.961"
         style="fill:#19394c;fill-opacity:1;fill-rule:nonzero;stroke:none"
         id="path18" /><path
         d="m 994.563,243.125 c 2.468,-12.176 6.707,-23.145 12.697,-32.84 5.98,-9.707 13.94,-17.441 23.85,-23.215 9.9,-5.8 22.3,-8.672 37.15,-8.672 14.87,0 27.37,2.872 37.47,8.672 10.14,5.774 18.18,13.508 24.17,23.215 5.98,9.695 10.21,20.664 12.71,32.84 2.47,12.168 3.7,24.668 3.7,37.477 0,12.804 -1.23,25.375 -3.7,37.777 -2.5,12.402 -6.73,23.316 -12.71,32.844 -5.99,9.476 -14.03,17.211 -24.17,23.211 -10.1,5.972 -22.6,8.972 -37.47,8.972 -14.85,0 -27.25,-3 -37.15,-8.972 -9.91,-6 -17.87,-13.735 -23.85,-23.211 -5.99,-9.528 -10.229,-20.442 -12.697,-32.844 -2.469,-12.402 -3.731,-24.973 -3.731,-37.777 0,-12.809 1.262,-25.309 3.731,-37.477 z m -79.899,107.164 c 7.84,20.844 18.981,38.586 33.449,53.254 14.438,14.672 31.782,26.008 52.017,34.074 20.24,8.043 42.95,12.078 68.13,12.078 25.2,0 48.01,-4.035 68.45,-12.078 20.44,-8.066 37.88,-19.402 52.35,-34.074 14.44,-14.668 25.58,-32.41 33.44,-53.254 7.84,-20.867 11.77,-44.082 11.77,-69.687 0,-25.61 -3.93,-48.747 -11.77,-69.391 -7.86,-20.645 -19,-38.309 -33.44,-52.949 -14.47,-14.668 -31.91,-25.907 -52.35,-33.75 -20.44,-7.84 -43.25,-11.766 -68.45,-11.766 -25.18,0 -47.89,3.926 -68.13,11.766 -20.235,7.843 -37.579,19.082 -52.017,33.75 -14.468,14.64 -25.609,32.304 -33.449,52.949 -7.863,20.644 -11.769,43.781 -11.769,69.391 0,25.605 3.906,48.82 11.769,69.687"
         style="fill:#19394c;fill-opacity:1;fill-rule:nonzero;stroke:none"
         id="path20" /><path
         d="m 1474.32,120.781 v 44.61 h -1.86 c -11.14,-18.602 -25.61,-32.012 -43.35,-40.274 -17.77,-8.242 -35.94,-12.371 -54.52,-12.371 -23.54,0 -42.84,3.094 -57.92,9.266 -15.07,6.203 -26.94,14.972 -35.61,26.34 -8.67,11.347 -14.77,25.183 -18.27,41.492 -3.51,16.328 -5.27,34.375 -5.27,54.211 v 196.968 h 87.96 V 260.156 c 0,-26.433 4.14,-46.14 12.4,-59.148 8.25,-13.008 22.91,-19.512 43.98,-19.512 23.95,0 41.29,7.109 52.02,21.375 10.74,14.238 16.11,37.656 16.11,70.293 v 167.859 h 87.96 V 120.781 h -83.63"
         style="fill:#19394c;fill-opacity:1;fill-rule:nonzero;stroke:none"
         id="path22" /><path
         d="M 2020.75,563.059 V 396.438 h 1.86 c 11.15,18.574 25.39,32.085 42.75,40.55 17.34,8.465 34.25,12.707 50.78,12.707 23.54,0 42.83,-3.207 57.93,-9.605 15.07,-6.402 26.94,-15.274 35.6,-26.641 8.68,-11.344 14.75,-25.179 18.28,-41.484 3.5,-16.332 5.27,-34.379 5.27,-54.215 V 120.781 h -87.96 v 180.867 c 0,26.434 -4.14,46.145 -12.4,59.149 -8.27,13.031 -22.91,19.535 -43.96,19.535 -23.97,0 -41.31,-7.133 -52.04,-21.375 -10.74,-14.262 -16.11,-37.707 -16.11,-70.316 v -167.86 h -87.96 v 442.278 h 87.96"
         style="fill:#19394c;fill-opacity:1;fill-rule:nonzero;stroke:none"
         id="path24" /><path
         d="m 2984.55,243.125 c 2.49,-12.176 6.7,-23.145 12.69,-32.84 6.01,-9.707 13.95,-17.441 23.85,-23.215 9.93,-5.8 22.31,-8.672 37.18,-8.672 14.86,0 27.34,2.872 37.47,8.672 10.11,5.774 18.17,13.508 24.15,23.215 6,9.695 10.23,20.664 12.7,32.84 2.47,12.168 3.74,24.668 3.74,37.477 0,12.804 -1.27,25.375 -3.74,37.777 -2.47,12.402 -6.7,23.316 -12.7,32.844 -5.98,9.476 -14.04,17.211 -24.15,23.211 -10.13,5.972 -22.61,8.972 -37.47,8.972 -14.87,0 -27.25,-3 -37.18,-8.972 -9.9,-6 -17.84,-13.735 -23.85,-23.211 -5.99,-9.528 -10.2,-20.442 -12.69,-32.844 -2.47,-12.402 -3.71,-24.973 -3.71,-37.777 0,-12.809 1.24,-25.309 3.71,-37.477 z m -79.9,107.164 c 7.84,20.844 18.98,38.586 33.44,53.254 14.45,14.672 31.81,26.008 52.04,34.074 20.22,8.043 42.93,12.078 68.14,12.078 25.17,0 48.01,-4.035 68.45,-12.078 20.44,-8.066 37.88,-19.402 52.32,-34.074 14.47,-14.668 25.61,-32.41 33.45,-53.254 7.84,-20.867 11.76,-44.082 11.76,-69.687 0,-25.61 -3.92,-48.747 -11.76,-69.391 -7.84,-20.645 -18.98,-38.309 -33.45,-52.949 -14.44,-14.668 -31.88,-25.907 -52.32,-33.75 -20.44,-7.84 -43.28,-11.766 -68.45,-11.766 -25.21,0 -47.92,3.926 -68.14,11.766 -20.23,7.843 -37.59,19.082 -52.04,33.75 -14.46,14.64 -25.6,32.304 -33.44,52.949 -7.84,20.644 -11.77,43.781 -11.77,69.391 0,25.605 3.93,48.82 11.77,69.687"
         style="fill:#19394c;fill-opacity:1;fill-rule:nonzero;stroke:none"
         id="path26" /><path
         d="M 3587.28,563.059 V 325.816 l 110.87,115.207 h 104.06 L 3681.44,323.348 3815.86,120.781 h -106.55 l -87.96,143.082 -34.07,-32.816 V 120.781 h -87.97 v 442.278 h 87.97"
         style="fill:#19394c;fill-opacity:1;fill-rule:nonzero;stroke:none"
         id="path28" /><path
         d="m 3880.86,200.371 c 3.92,-6.797 8.99,-12.371 15.16,-16.707 6.2,-4.336 13.34,-7.531 21.38,-9.601 8.07,-2.071 16.41,-3.106 25.08,-3.106 6.2,0 12.7,0.715 19.53,2.168 6.81,1.445 13.01,3.711 18.57,6.809 5.58,3.105 10.22,7.234 13.95,12.402 3.7,5.144 5.56,11.641 5.56,19.512 0,13.203 -8.76,23.105 -26.31,29.734 -17.56,6.578 -42.04,13.211 -73.42,19.813 -12.8,2.875 -25.28,6.3 -37.47,10.234 -12.18,3.902 -23.02,9.07 -32.52,15.473 -9.5,6.402 -17.14,14.441 -22.91,24.144 -5.79,9.703 -8.67,21.578 -8.67,35.617 0,20.664 4.03,37.578 12.08,50.809 8.06,13.207 18.67,23.613 31.9,31.277 13.2,7.641 28.08,13.004 44.59,16.106 16.5,3.101 33.44,4.64 50.78,4.64 17.36,0 34.18,-1.668 50.49,-4.968 16.3,-3.301 30.87,-8.872 43.67,-16.707 12.8,-7.844 23.44,-18.278 31.92,-31.282 8.43,-13.008 13.5,-29.437 15.16,-49.246 h -83.62 c -1.23,16.934 -7.64,28.379 -19.21,34.375 -11.56,5.977 -25.18,8.973 -40.88,8.973 -4.94,0 -10.33,-0.301 -16.1,-0.906 -5.77,-0.629 -11.04,-1.965 -15.8,-4.036 -4.74,-2.062 -8.77,-5.062 -12.07,-8.992 -3.31,-3.914 -4.95,-9.176 -4.95,-15.781 0,-7.863 2.88,-14.262 8.68,-19.203 5.77,-4.969 13.3,-8.977 22.6,-12.07 9.27,-3.102 19.91,-5.903 31.88,-8.372 11.97,-2.468 24.17,-5.164 36.55,-8.066 12.8,-2.871 25.3,-6.402 37.47,-10.508 12.18,-4.136 23.02,-9.605 32.52,-16.433 9.5,-6.805 17.14,-15.274 22.93,-25.383 5.77,-10.133 8.67,-22.602 8.67,-37.477 0,-21.074 -4.22,-38.711 -12.7,-52.949 -8.47,-14.266 -19.5,-25.711 -33.14,-34.383 -13.61,-8.672 -29.22,-14.765 -46.75,-18.273 -17.57,-3.504 -35.41,-5.262 -53.59,-5.262 -18.57,0 -36.77,1.836 -54.51,5.567 -17.74,3.699 -33.54,9.902 -47.38,18.574 -13.84,8.672 -25.19,20.136 -34.08,34.375 -8.87,14.246 -13.72,32.109 -14.55,53.582 h 83.63 c 0,-9.5 1.94,-17.637 5.88,-24.473"
         style="fill:#19394c;fill-opacity:1;fill-rule:nonzero;stroke:none"
         id="path30" /><path
         d="m 2419.34,186.438 c -14.87,0 -24.77,2.5 -29.74,7.441 -4.94,4.961 -7.41,14.863 -7.41,29.734 v 158.555 h 49.06 l 29.99,58.855 h -79.05 v 96 h -87.96 v -96 h -44.06 l -29.91,-58.71 73.97,-0.145 V 193.273 c 0,-16.113 2.67,-29.113 8.04,-39.043 5.36,-9.902 12.7,-17.539 22,-22.91 9.28,-5.371 20.01,-8.976 32.21,-10.84 12.18,-1.867 25.08,-2.792 38.71,-2.792 8.67,0 17.55,0.222 26.62,0.625 9.1,0.398 17.37,1.238 24.78,2.468 v 68.157 c -4.14,-0.833 -8.47,-1.465 -13.01,-1.868 -4.54,-0.429 -9.28,-0.632 -14.24,-0.632"
         style="fill:#19394c;fill-opacity:1;fill-rule:nonzero;stroke:none"
         id="path32" /><path
         d="m 522.664,186.438 c -14.867,0 -24.777,2.5 -29.742,7.441 -4.938,4.961 -7.406,14.863 -7.406,29.734 v 158.555 h 45.257 l 29.985,58.855 h -75.242 v 96 h -87.965 v -96 h -44.055 l -29.91,-58.71 73.965,-0.145 V 193.273 c 0,-16.113 2.672,-29.113 8.043,-39.043 5.367,-9.902 12.699,-17.539 22,-22.91 9.277,-5.371 20.015,-8.976 32.215,-10.84 12.171,-1.867 25.078,-2.792 38.711,-2.792 8.668,0 17.543,0.222 26.613,0.625 9.097,0.398 17.363,1.238 24.777,2.468 v 68.157 c -4.133,-0.833 -8.469,-1.465 -13.004,-1.868 -4.543,-0.429 -9.277,-0.632 -14.242,-0.632"
         style="fill:#19394c;fill-opacity:1;fill-rule:nonzero;stroke:none"
         id="path34" /><path
         d="m 3430.75,449.695 c -74,0 -102.21,-68.125 -102.21,-68.125 v -0.007 h -1.23 v 59.46 h -83.62 V 120.781 h 87.96 v 134.289 -0.039 c 0,78.074 15.17,112.801 81.65,112.801 13.7,0 25.03,-3.125 34.4,-8.176 l 37.74,74.047 c -14.41,9.285 -32.43,15.992 -54.69,15.992"
         style="fill:#19394c;fill-opacity:1;fill-rule:nonzero;stroke:none"
         id="path36" /><path
         d="m 2818.99,441.023 -58.85,-216.804 h -1.24 l -54.48,216.804 h -85.5 l -53.28,-217.41 h -1.23 l -58.83,217.41 -57.26,-112.398 65.93,-207.844 h 91.04 l 54.51,214.938 h 1.24 l 56.98,-214.938 h 90.43 l 100.97,320.242 h -90.43"
         style="fill:#19394c;fill-opacity:1;fill-rule:nonzero;stroke:none"
         id="path38" /></g></g></svg>
