<?xml version="1.0" standalone="no"?>
<!DOCTYPE svg PUBLIC "-//W3C//DTD SVG 20010904//EN"
 "http://www.w3.org/TR/2001/REC-SVG-20010904/DTD/svg10.dtd">
<svg version="1.0" xmlns="http://www.w3.org/2000/svg"
 width="1146.000000pt" height="283.000000pt" viewBox="0 0 1146.000000 283.000000"
 preserveAspectRatio="xMidYMid meet">
<metadata>
Created by potrace 1.16, written by Peter Selinger 2001-2019
</metadata>
<g transform="translate(0.000000,283.000000) scale(0.100000,-0.100000)"
fill="#000000" stroke="none">
<path d="M360 2155 l0 -125 180 0 180 0 0 -570 0 -570 140 0 140 0 0 570 0
570 180 0 180 0 0 125 0 125 -500 0 -500 0 0 -125z"/>
<path d="M1460 1585 l0 -695 135 0 135 0 0 348 0 348 32 33 c67 68 162 92 206
51 37 -35 42 -81 42 -437 l0 -343 135 0 135 0 0 387 c0 460 -2 477 -84 559
-37 36 -65 54 -99 63 -92 26 -237 -5 -326 -69 l-41 -30 0 240 0 240 -135 0
-135 0 0 -695z"/>
<path d="M5320 1585 l0 -695 135 0 135 0 0 348 0 348 38 36 c48 46 92 68 137
68 51 0 70 -13 89 -60 14 -35 16 -91 16 -390 l0 -350 136 0 135 0 -3 413 c-3
405 -3 413 -26 458 -32 65 -86 115 -145 135 -93 31 -242 1 -336 -66 l-41 -30
0 240 0 240 -135 0 -135 0 0 -695z"/>
<path d="M6849 2273 c0 -4 64 -317 143 -695 l143 -688 75 0 76 0 119 540 c65
297 121 540 124 540 3 0 55 -237 115 -528 60 -290 111 -533 114 -540 3 -8 28
-12 77 -12 67 0 73 2 78 23 29 112 307 1340 307 1352 0 12 -14 15 -70 15 l-69
0 -10 -37 c-5 -21 -58 -262 -117 -535 -60 -274 -111 -494 -115 -490 -5 6 -229
1035 -229 1055 0 4 -33 7 -74 7 l-73 0 -21 -87 c-11 -49 -66 -294 -123 -546
l-103 -459 -111 544 -110 543 -72 3 c-40 2 -73 -1 -74 -5z"/>
<path d="M9620 1585 l0 -695 75 0 75 0 0 171 0 170 73 90 c56 70 74 86 82 75
6 -8 62 -124 125 -260 l115 -245 78 -1 c42 0 77 4 77 10 0 5 -68 151 -151 324
l-151 314 131 164 c72 89 131 166 131 170 0 5 -36 8 -79 8 l-79 0 -174 -217
-173 -217 -3 417 -2 417 -75 0 -75 0 0 -695z"/>
<path d="M6350 2015 l0 -125 -65 0 -65 0 0 -110 0 -110 65 0 65 0 0 -278 c0
-321 6 -356 71 -427 75 -81 205 -110 347 -76 l52 13 0 104 c0 57 -3 104 -7
104 -5 -1 -19 -7 -33 -15 -14 -8 -46 -14 -72 -15 -39 0 -50 4 -67 26 -20 26
-21 39 -21 295 l0 269 100 0 100 0 0 110 0 110 -100 0 -100 0 0 125 0 125
-135 0 -135 0 0 -125z"/>
<path d="M5068 1916 c-26 -7 -63 -25 -82 -40 l-36 -27 -37 19 c-96 49 -276 55
-385 13 -71 -28 -151 -98 -186 -165 -23 -45 -27 -63 -27 -146 0 -108 17 -165
70 -235 l33 -43 -39 -36 c-84 -75 -101 -181 -41 -255 l30 -37 -28 -19 c-36
-24 -70 -84 -70 -121 0 -168 156 -255 460 -255 168 -1 264 17 353 64 102 54
153 144 145 256 -6 81 -34 130 -97 168 -74 45 -130 54 -336 60 -236 6 -280 20
-235 75 17 22 26 23 137 24 130 1 189 17 275 74 123 82 171 254 110 394 l-21
47 27 10 c18 7 40 7 69 0 23 -6 44 -11 47 -11 3 0 6 42 6 94 0 76 -3 95 -16
100 -24 9 -74 6 -126 -8z m-275 -216 c78 -68 68 -229 -17 -285 -13 -9 -42 -16
-63 -17 -94 -1 -150 73 -140 183 9 100 54 148 139 149 38 0 54 -6 81 -30z
m-15 -824 c222 -15 246 -22 222 -66 -16 -30 -61 -47 -163 -60 -98 -13 -235 -1
-292 26 -46 22 -61 67 -33 102 13 15 13 15 266 -2z"/>
<path d="M2695 1897 c-191 -63 -300 -227 -312 -467 -15 -302 130 -514 376
-553 282 -43 501 183 501 517 -1 227 -95 402 -257 479 -60 28 -80 32 -168 34
-63 2 -115 -2 -140 -10z m187 -204 c18 -12 41 -42 61 -83 32 -64 32 -66 32
-215 0 -132 -3 -157 -23 -206 -25 -63 -55 -96 -98 -107 -48 -12 -83 -3 -119
34 -53 53 -70 122 -69 284 0 115 3 143 23 192 40 104 118 144 193 101z"/>
<path d="M8464 1900 c-103 -22 -199 -98 -249 -199 -39 -79 -57 -178 -56 -321
0 -249 72 -405 220 -477 51 -26 66 -28 171 -28 102 0 121 3 165 25 150 74 225
236 225 487 -1 257 -76 418 -229 487 -65 29 -178 41 -247 26z m172 -139 c50
-23 104 -84 126 -146 46 -124 45 -333 -3 -459 -45 -121 -147 -183 -257 -156
-131 31 -197 161 -196 390 0 136 20 223 67 293 59 87 170 120 263 78z"/>
<path d="M10612 1900 c-140 -30 -225 -131 -225 -270 0 -148 76 -223 303 -299
181 -60 242 -138 191 -244 -31 -63 -85 -92 -176 -92 -90 0 -162 37 -213 108
l-34 48 -27 -17 c-14 -10 -41 -27 -59 -39 l-32 -22 28 -39 c112 -154 330 -213
504 -137 158 71 219 306 111 433 -40 47 -97 78 -230 126 -115 42 -150 59 -185
92 -105 97 -5 247 153 229 64 -8 119 -38 162 -88 l36 -42 51 43 51 42 -24 32
c-35 45 -110 99 -165 119 -58 21 -162 29 -220 17z"/>
<path d="M3362 1493 c4 -383 5 -400 26 -455 30 -75 91 -131 168 -154 48 -14
68 -15 126 -5 69 11 147 42 206 81 l32 22 0 -46 0 -46 135 0 135 0 0 500 0
500 -135 0 -135 0 0 -344 0 -344 -51 -46 c-79 -71 -151 -82 -201 -29 l-23 25
-3 369 -3 369 -140 0 -141 0 4 -397z"/>
<path d="M9355 1871 c-48 -22 -104 -79 -139 -141 l-26 -45 0 98 0 97 -75 0
-75 0 0 -495 0 -495 75 0 75 0 0 282 0 282 44 91 c68 139 155 214 249 215 l37
0 0 65 0 65 -62 0 c-40 0 -78 -7 -103 -19z"/>
</g>
</svg>
